{"title":"Cão de Briga  (HD) - [jcmoc].mp4","uid":13268118,"size":1163750854,"categoryP":"video","categoryS":"movies","magnet":"?xt=urn:btih:301b8de11266925536f05cd689a05e8ed278bb6d&amp;dn=C%26atilde%3Bo+de+Briga++%28HD%29+-+%5Bjcmoc%5D.mp4&amp;tr=udp%3A%2F%2Ftracker.leechers-paradise.org%3A6969&amp;tr=udp%3A%2F%2Fzer0day.ch%3A1337&amp;tr=udp%3A%2F%2Fopen.demonii.com%3A1337&amp;tr=udp%3A%2F%2Ftracker.coppersurfer.tk%3A6969&amp;tr=udp%3A%2F%2Fexodus.desync.com%3A6969","seeders":0,"leechers":0,"uploader":"jcmoc","files":1,"time":1453364283,"description":"General\r\nFormat                         : MPEG-4\r\nFormat profile                 : Base Media / Version 2\r\nCodec ID                       : mp42\r\nFile size                      : 1.08 GiB\r\nDuration                       : 1h 42mn\r\nOverall bit rate mode          : Variable\r\nOverall bit rate               : 1 510 Kbps\r\nEncoded date                   : UTC 2015-07-17 09:54:55\r\nTagged date                    : UTC 2015-07-17 09:54:55\r\ngsst                           : 0\r\ngstd                           : 6166128\r\ngssd                           : BBB2C0044\r\ngshh                           : r1---sn-8p5hvj-hvje.googlevideo.com\r\n\r\nVideo\r\nID                             : 1\r\nFormat                         : AVC\r\nFormat/Info                    : Advanced Video Codec\r\nFormat profile                 :   \r\nFormat settings, CABAC         : Yes\r\nFormat settings, ReFrames      : 1 frame\r\nCodec ID                       : avc1\r\nCodec ID/Info                  : Advanced Video Coding\r\nDuration                       : 1h 42mn\r\nBit rate                       : 1 315 Kbps\r\nMaximum bit rate               : 4 861 Kbps\r\nWidth                          : 1 280 pixels\r\nHeight                         : 544 pixels\r\nDisplay aspect ratio           : 2.35:1\r\nFrame rate mode                : Constant\r\nFrame rate                     : 23.976 fps\r\nColor space                    : YUV\r\nChroma subsampling             : 4:2:0\r\nBit depth                      : 8 bits\r\nScan type                      : Progressive\r\nBits/(Pixel*Frame)             : 0.079\r\nStream size                    : 967 MiB (87%)\r\nTagged date                    : UTC 2015-07-17 09:57:32\r\n\r\nAudio\r\nID                             : 2\r\nFormat                         : AAC\r\nFormat/Info                    : Advanced Audio Codec\r\nFormat profile                 : LC\r\nCodec ID                       : 40\r\nDuration                       : 1h 42mn\r\nBit rate mode                  : Variable\r\nBit rate                       : 192 Kbps\r\nMaximum bit rate               : 201 Kbps\r\nChannel count                  : 2 channels\r\nChannel positions              : Front: L R\r\nSampling rate                  : 44.1 KHz\r\nCompression mode               : Lossy\r\nStream size                    : 141 MiB (13%)\r\nTitle                          : IsoMedia File Produced by Google, 5-11-2011\r\nEncoded date                   : UTC 2015-07-17 09:56:31\r\nTagged date                    : UTC 2015-07-17 09:57:32","torrent":{"xt":"urn:btih:301b8de11266925536f05cd689a05e8ed278bb6d","amp;dn":"C%26atilde%3Bo+de+Briga++%28HD%29+-+%5Bjcmoc%5D.mp4","amp;tr":["udp%3A%2F%2Ftracker.leechers-paradise.org%3A6969","udp%3A%2F%2Fzer0day.ch%3A1337","udp%3A%2F%2Fopen.demonii.com%3A1337","udp%3A%2F%2Ftracker.coppersurfer.tk%3A6969","udp%3A%2F%2Fexodus.desync.com%3A6969"],"infoHash":"301b8de11266925536f05cd689a05e8ed278bb6d","infoHashBuffer":{"type":"Buffer","data":[48,27,141,225,18,102,146,85,54,240,92,214,137,160,94,142,210,120,187,109]},"announce":[],"urlList":[]}}